<svg xmlns="http://www.w3.org/2000/svg" xmlns:xlink="http://www.w3.org/1999/xlink" width="1080" zoomAndPan="magnify" viewBox="0 0 810 1012.49997" height="1350" preserveAspectRatio="xMidYMid meet" version="1.0"><defs><clipPath id="d92f418fa1"><path d="M 41 117 L 802 117 L 802 923 L 41 923 Z M 41 117 " clip-rule="nonzero"/></clipPath><clipPath id="6c84a212e9"><path d="M 529.472656 -69.417969 L 809.847656 886.574219 L 280.417969 1041.847656 L 0.0429688 85.855469 Z M 529.472656 -69.417969 " clip-rule="nonzero"/></clipPath><clipPath id="3eb885a273"><path d="M 529.472656 -69.417969 L 809.847656 886.574219 L 280.417969 1041.847656 L 0.0429688 85.855469 Z M 529.472656 -69.417969 " clip-rule="nonzero"/></clipPath><clipPath id="5f6decef8f"><path d="M 16 51 L 124 51 L 124 175 L 16 175 Z M 16 51 " clip-rule="nonzero"/></clipPath><clipPath id="d62b1a9370"><path d="M 529.472656 -69.417969 L 809.847656 886.574219 L 280.417969 1041.847656 L 0.0429688 85.855469 Z M 529.472656 -69.417969 " clip-rule="nonzero"/></clipPath><clipPath id="b77c419865"><path d="M 529.472656 -69.417969 L 809.847656 886.574219 L 280.417969 1041.847656 L 0.0429688 85.855469 Z M 529.472656 -69.417969 " clip-rule="nonzero"/></clipPath></defs><g clip-path="url(#d92f418fa1)"><g clip-path="url(#6c84a212e9)"><g clip-path="url(#3eb885a273)"><path fill="#f56f10" d="M 45.769531 240.882812 L 45.753906 240.832031 C 43.691406 233.800781 42.261719 226.542969 41.507812 219.253906 C 40.914062 213.515625 45.089844 208.378906 50.828125 207.785156 C 56.566406 207.191406 61.707031 211.382812 62.296875 217.101562 C 62.917969 223.148438 64.191406 229.226562 65.820312 235 C 66.9375 238.808594 68.304688 242.605469 69.882812 246.289062 C 72.15625 251.621094 69.699219 257.734375 64.398438 260.007812 C 59.089844 262.285156 52.953125 259.824219 50.679688 254.523438 C 48.773438 250.078125 47.121094 245.488281 45.769531 240.882812 Z M 88.8125 301.894531 C 87.910156 298.816406 88.433594 295.371094 90.515625 292.625 C 94.011719 288.023438 100.5625 287.140625 105.160156 290.625 C 113.179688 296.726562 122.160156 302.023438 131.855469 306.375 C 137.117188 308.742188 139.460938 314.929688 137.101562 320.191406 C 134.730469 325.457031 128.546875 327.808594 123.285156 325.441406 C 112.148438 320.433594 101.796875 314.320312 92.515625 307.261719 C 90.664062 305.855469 89.417969 303.957031 88.8125 301.894531 Z M 52.066406 159.972656 C 51.398438 157.691406 51.496094 155.179688 52.535156 152.832031 C 57.164062 142.296875 63.1875 131.929688 70.433594 122.019531 C 73.839844 117.359375 80.386719 116.351562 85.042969 119.753906 C 89.703125 123.160156 90.710938 129.707031 87.308594 134.363281 C 80.960938 143.046875 75.691406 152.09375 71.667969 161.246094 C 69.347656 166.527344 63.1875 168.925781 57.894531 166.609375 C 54.957031 165.3125 52.90625 162.835938 52.066406 159.972656 Z M 178.089844 333.871094 C 177.738281 332.675781 177.597656 331.394531 177.707031 330.082031 C 178.179688 324.328125 183.226562 320.042969 188.980469 320.515625 C 192.71875 320.8125 196.558594 321.03125 200.386719 321.136719 C 207.296875 321.328125 214.316406 321.324219 221.238281 321.121094 C 227.007812 320.953125 231.816406 325.488281 231.988281 331.265625 C 232.15625 337.03125 227.613281 341.84375 221.84375 342.015625 C 214.523438 342.226562 207.109375 342.230469 199.796875 342.027344 C 195.59375 341.90625 191.382812 341.683594 187.273438 341.34375 C 182.839844 340.984375 179.28125 337.890625 178.101562 333.871094 Z M 402.082031 866.796875 C 400.472656 861.316406 399.539062 855.601562 399.285156 849.804688 C 399.035156 844.042969 403.515625 839.164062 409.28125 838.921875 C 415.046875 838.667969 419.917969 843.152344 420.167969 848.917969 C 420.574219 858.273438 423.503906 867.179688 428.730469 874.753906 C 432 879.515625 430.804688 886.011719 426.054688 889.289062 C 421.304688 892.5625 414.792969 891.363281 411.519531 886.613281 C 407.335938 880.53125 404.164062 873.867188 402.09375 866.804688 Z M 273.867188 328.289062 C 273.703125 327.734375 273.589844 327.164062 273.515625 326.585938 C 272.828125 320.851562 276.917969 315.65625 282.652344 314.96875 C 294.023438 313.609375 305.425781 312.5625 316.539062 311.863281 C 322.292969 311.507812 327.253906 315.902344 327.625 321.640625 C 327.984375 327.40625 323.609375 332.371094 317.84375 332.726562 C 307.125 333.394531 296.117188 334.414062 285.144531 335.730469 C 280.003906 336.347656 275.28125 333.121094 273.871094 328.308594 Z M 422.917969 795.871094 C 421.90625 792.414062 422.703125 788.53125 425.359375 785.730469 C 432.902344 777.765625 441.890625 770.644531 452.050781 764.578125 L 453.972656 763.441406 C 458.957031 760.53125 465.359375 762.207031 468.269531 767.191406 C 471.191406 772.175781 469.503906 778.570312 464.519531 781.492188 L 462.792969 782.515625 C 454.25 787.625 446.765625 793.542969 440.539062 800.117188 C 436.574219 804.304688 429.949219 804.480469 425.761719 800.515625 C 424.371094 799.199219 423.425781 797.59375 422.921875 795.882812 Z M 463.042969 913.851562 C 462.621094 912.417969 462.503906 910.867188 462.753906 909.292969 C 463.652344 903.59375 468.992188 899.699219 474.703125 900.59375 C 484.46875 902.128906 494.5 901.992188 504.507812 900.199219 C 510.183594 899.179688 515.613281 902.96875 516.648438 908.632812 C 517.671875 914.320312 513.890625 919.742188 508.214844 920.773438 C 495.90625 922.984375 483.535156 923.144531 471.460938 921.25 C 467.335938 920.597656 464.15625 917.617188 463.054688 913.859375 Z M 369.8125 324.945312 C 369.484375 323.824219 369.335938 322.640625 369.40625 321.402344 C 369.738281 315.636719 374.675781 311.238281 380.433594 311.570312 C 391.949219 312.222656 403.402344 313.292969 414.480469 314.742188 C 420.199219 315.496094 424.234375 320.742188 423.480469 326.464844 C 422.734375 332.183594 417.488281 336.21875 411.757812 335.464844 C 401.1875 334.082031 390.246094 333.058594 379.230469 332.429688 C 374.691406 332.175781 371.007812 329.054688 369.796875 324.9375 Z M 507.085938 751.851562 C 507.042969 751.71875 507 751.570312 506.960938 751.433594 C 505.574219 745.835938 508.976562 740.160156 514.574219 738.773438 C 525.878906 735.953125 537.484375 733.976562 549.054688 732.890625 C 554.800781 732.359375 559.890625 736.578125 560.429688 742.320312 C 560.972656 748.0625 556.746094 753.164062 551 753.695312 C 540.46875 754.679688 529.902344 756.488281 519.613281 759.050781 C 514.152344 760.410156 508.632812 757.207031 507.066406 751.859375 Z M 553.039062 887.921875 C 551.820312 883.761719 553.28125 879.113281 557.011719 876.464844 C 565.140625 870.6875 573.433594 863.832031 581.6875 856.09375 C 585.890625 852.140625 592.507812 852.347656 596.460938 856.550781 C 600.410156 860.753906 600.203125 867.371094 596 871.324219 C 587.070312 879.707031 578.027344 887.171875 569.132812 893.492188 C 564.425781 896.839844 557.902344 895.738281 554.554688 891.03125 C 553.867188 890.058594 553.359375 889.003906 553.039062 887.921875 Z M 464.417969 340.804688 C 463.882812 338.972656 463.839844 336.988281 464.402344 335.015625 C 465.980469 329.464844 471.761719 326.246094 477.3125 327.820312 C 488.402344 330.980469 499.355469 334.566406 509.875 338.484375 C 515.28125 340.503906 518.027344 346.523438 516.015625 351.925781 C 513.996094 357.328125 507.980469 360.078125 502.578125 358.066406 C 492.578125 354.335938 482.164062 350.925781 471.605469 347.921875 C 468.015625 346.902344 465.40625 344.132812 464.429688 340.800781 Z M 620.554688 819.953125 C 619.648438 816.855469 620.183594 813.378906 622.304688 810.621094 C 625.714844 806.203125 629.070312 801.707031 632.367188 797.144531 C 635.480469 792.835938 638.523438 788.453125 641.421875 784.09375 C 644.613281 779.285156 651.101562 777.972656 655.910156 781.164062 C 660.714844 784.355469 662.027344 790.847656 658.835938 795.652344 C 655.792969 800.238281 652.585938 804.859375 649.3125 809.382812 C 645.890625 814.121094 642.40625 818.792969 638.867188 823.382812 C 635.339844 827.949219 628.777344 828.796875 624.210938 825.269531 C 622.390625 823.867188 621.164062 821.984375 620.5625 819.941406 Z M 602.378906 749.574219 C 601.910156 747.96875 601.820312 746.226562 602.1875 744.480469 C 603.386719 738.828125 608.929688 735.226562 614.578125 736.425781 C 626.378906 738.929688 637.734375 742.464844 648.351562 746.921875 C 653.671875 749.160156 656.167969 755.292969 653.933594 760.613281 C 651.695312 765.933594 645.5625 768.429688 640.242188 766.191406 C 630.84375 762.242188 620.753906 759.101562 610.242188 756.871094 C 606.351562 756.046875 603.429688 753.148438 602.382812 749.585938 Z M 552.871094 377.828125 C 552.09375 375.179688 552.359375 372.226562 553.855469 369.648438 C 556.746094 364.65625 563.148438 362.957031 568.136719 365.839844 C 578.15625 371.648438 587.890625 377.945312 597.074219 384.578125 C 601.757812 387.964844 602.804688 394.492188 599.425781 399.171875 C 596.050781 403.855469 589.515625 404.902344 584.835938 401.527344 C 576.21875 395.308594 567.078125 389.378906 557.664062 383.933594 C 555.253906 382.535156 553.597656 380.3125 552.871094 377.828125 Z M 670.339844 737.976562 C 669.667969 735.6875 669.773438 733.160156 670.816406 730.804688 C 675.226562 720.847656 679.144531 710.6875 682.449219 700.601562 C 684.242188 695.113281 690.148438 692.125 695.632812 693.921875 C 701.121094 695.71875 704.109375 701.621094 702.316406 707.109375 C 698.792969 717.859375 694.628906 728.6875 689.933594 739.285156 C 687.597656 744.5625 681.421875 746.945312 676.144531 744.601562 C 673.214844 743.300781 671.1875 740.828125 670.351562 737.984375 Z M 686.6875 793.503906 C 685.753906 790.316406 686.34375 786.738281 688.597656 783.964844 C 692.234375 779.480469 698.824219 778.796875 703.296875 782.433594 C 711.585938 789.171875 720.269531 796.601562 729.097656 804.523438 C 733.390625 808.382812 733.753906 814.984375 729.890625 819.277344 C 726.03125 823.574219 719.429688 823.921875 715.136719 820.074219 C 706.566406 812.371094 698.148438 805.171875 690.125 798.652344 C 688.414062 797.257812 687.261719 795.449219 686.6875 793.492188 Z M 627.664062 437.609375 C 626.574219 433.890625 627.601562 429.707031 630.667969 426.925781 C 634.941406 423.035156 641.550781 423.363281 645.425781 427.628906 C 653.234375 436.222656 660.554688 445.308594 667.171875 454.632812 C 670.519531 459.339844 669.40625 465.867188 664.707031 469.203125 C 660.003906 472.535156 653.472656 471.4375 650.132812 466.726562 C 643.996094 458.089844 637.207031 449.660156 629.960938 441.683594 C 628.863281 440.472656 628.097656 439.078125 627.664062 437.609375 Z M 757.402344 858.625 C 756.359375 855.070312 757.25 851.066406 760.054688 848.265625 C 764.148438 844.1875 770.765625 844.214844 774.832031 848.300781 C 779.582031 853.074219 784.03125 857.597656 788.128906 861.757812 C 791.832031 865.515625 795.25 868.988281 798.339844 872.089844 C 802.40625 876.183594 802.398438 882.796875 798.316406 886.871094 C 794.222656 890.949219 787.609375 890.933594 783.535156 886.851562 C 780.414062 883.714844 776.96875 880.21875 773.234375 876.429688 C 769.164062 872.289062 764.734375 867.792969 760.011719 863.042969 C 758.738281 861.769531 757.863281 860.234375 757.390625 858.621094 Z M 695.625 645.640625 C 695.25 644.363281 695.113281 642.988281 695.261719 641.582031 C 696.414062 630.867188 696.925781 620.066406 696.777344 609.46875 C 696.695312 603.695312 701.3125 598.957031 707.082031 598.871094 C 712.855469 598.789062 717.597656 603.414062 717.679688 609.175781 C 717.839844 620.617188 717.28125 632.277344 716.042969 643.820312 C 715.421875 649.554688 710.273438 653.710938 704.535156 653.085938 C 700.203125 652.621094 696.777344 649.566406 695.625 645.628906 Z M 678.613281 518.492188 C 677.117188 513.390625 679.71875 507.878906 684.753906 505.863281 C 690.113281 503.71875 696.195312 506.324219 698.339844 511.683594 C 702.628906 522.40625 706.253906 533.519531 709.148438 544.714844 C 710.585938 550.300781 707.222656 556.003906 701.625 557.4375 C 696.039062 558.875 690.304688 555.550781 688.90625 549.914062 C 686.242188 539.566406 682.902344 529.335938 678.933594 519.445312 C 678.808594 519.132812 678.695312 518.808594 678.597656 518.488281 Z M 678.613281 518.492188 " fill-opacity="1" fill-rule="nonzero"/></g></g></g><g clip-path="url(#5f6decef8f)"><g clip-path="url(#d62b1a9370)"><g clip-path="url(#b77c419865)"><path fill="#f56f10" d="M 92.214844 97.207031 L 19.390625 115.128906 C 16.566406 115.816406 15.007812 111.972656 17.527344 110.5 L 119.195312 51.40625 C 120.875 50.429688 122.976562 51.640625 122.984375 53.574219 L 123.324219 172.09375 C 123.335938 174.980469 119.269531 175.609375 118.40625 172.851562 L 95.230469 98.882812 C 94.839844 97.609375 93.519531 96.867188 92.230469 97.191406 Z M 92.214844 97.207031 " fill-opacity="1" fill-rule="nonzero"/></g></g></g></svg>