<svg xmlns="http://www.w3.org/2000/svg" xmlns:xlink="http://www.w3.org/1999/xlink" width="1080" zoomAndPan="magnify" viewBox="0 0 810 1012.49997" height="1350" preserveAspectRatio="xMidYMid meet" version="1.0"><defs><clipPath id="3df9357929"><path d="M 0.199219 0 L 790.117188 0 L 790.117188 847.015625 L 0.199219 847.015625 Z M 0.199219 0 " clip-rule="nonzero"/></clipPath></defs><g clip-path="url(#3df9357929)"><path fill="#f56f10" d="M 790.085938 420.71875 C 790.085938 433.71875 788.78125 446.871094 787.242188 459.71875 C 787.183594 460.222656 787.074219 460.71875 786.917969 461.203125 C 786.757812 461.6875 786.554688 462.152344 786.308594 462.597656 C 786.058594 463.042969 785.769531 463.457031 785.4375 463.84375 C 785.105469 464.230469 784.742188 464.582031 784.339844 464.898438 C 783.941406 465.214844 783.511719 465.488281 783.058594 465.71875 C 782.605469 465.949219 782.132812 466.132812 781.640625 466.269531 C 781.152344 466.410156 780.652344 466.496094 780.144531 466.535156 C 779.636719 466.574219 779.128906 466.566406 778.625 466.503906 C 778.117188 466.445312 777.625 466.335938 777.140625 466.175781 C 776.65625 466.015625 776.191406 465.8125 775.746094 465.5625 C 775.304688 465.3125 774.886719 465.023438 774.5 464.691406 C 774.113281 464.359375 773.765625 463.992188 773.449219 463.589844 C 773.136719 463.191406 772.863281 462.761719 772.632812 462.308594 C 772.402344 461.855469 772.222656 461.382812 772.085938 460.890625 C 771.949219 460.398438 771.859375 459.898438 771.820312 459.390625 C 771.785156 458.882812 771.796875 458.378906 771.859375 457.871094 C 773.320312 445.488281 774.320312 432.796875 774.625 420.257812 C 774.625 419.753906 774.675781 419.25 774.773438 418.757812 C 774.871094 418.261719 775.019531 417.78125 775.210938 417.3125 C 775.40625 416.847656 775.640625 416.402344 775.921875 415.984375 C 776.203125 415.5625 776.523438 415.175781 776.878906 414.816406 C 777.238281 414.460938 777.625 414.140625 778.046875 413.863281 C 778.464844 413.582031 778.910156 413.34375 779.375 413.152344 C 779.839844 412.957031 780.324219 412.8125 780.816406 412.710938 C 781.3125 412.613281 781.8125 412.566406 782.320312 412.566406 C 782.824219 412.566406 783.324219 412.613281 783.820312 412.710938 C 784.316406 412.8125 784.796875 412.957031 785.261719 413.152344 C 785.730469 413.34375 786.171875 413.582031 786.59375 413.863281 C 787.011719 414.140625 787.402344 414.460938 787.757812 414.816406 C 788.113281 415.175781 788.433594 415.5625 788.714844 415.984375 C 788.996094 416.402344 789.230469 416.847656 789.425781 417.3125 C 789.617188 417.78125 789.765625 418.261719 789.863281 418.757812 C 789.960938 419.25 790.011719 419.753906 790.011719 420.257812 Z M 789.625 382.257812 C 789.640625 382.761719 789.605469 383.265625 789.523438 383.761719 C 789.4375 384.261719 789.304688 384.746094 789.125 385.21875 C 788.949219 385.6875 788.722656 386.140625 788.457031 386.566406 C 788.1875 386.996094 787.878906 387.394531 787.535156 387.761719 C 787.1875 388.128906 786.808594 388.457031 786.398438 388.75 C 785.984375 389.042969 785.550781 389.292969 785.089844 389.5 C 784.628906 389.707031 784.152344 389.867188 783.660156 389.980469 C 783.167969 390.09375 782.667969 390.160156 782.164062 390.175781 C 781.660156 390.1875 781.160156 390.15625 780.660156 390.070312 C 780.164062 389.988281 779.675781 389.855469 779.203125 389.675781 C 778.734375 389.5 778.28125 389.273438 777.855469 389.007812 C 777.425781 388.738281 777.027344 388.433594 776.660156 388.085938 C 776.292969 387.742188 775.960938 387.363281 775.667969 386.949219 C 775.375 386.539062 775.125 386.105469 774.917969 385.644531 C 774.710938 385.183594 774.550781 384.707031 774.4375 384.214844 C 774.320312 383.722656 774.257812 383.222656 774.242188 382.71875 C 773.550781 370.179688 772.242188 357.566406 770.394531 345.183594 C 770.324219 344.675781 770.300781 344.167969 770.328125 343.660156 C 770.351562 343.148438 770.429688 342.648438 770.554688 342.152344 C 770.679688 341.660156 770.851562 341.179688 771.074219 340.71875 C 771.292969 340.261719 771.554688 339.824219 771.859375 339.417969 C 772.164062 339.007812 772.507812 338.632812 772.886719 338.289062 C 773.265625 337.949219 773.675781 337.648438 774.113281 337.386719 C 774.550781 337.125 775.011719 336.910156 775.492188 336.738281 C 775.976562 336.570312 776.46875 336.449219 776.972656 336.375 C 777.476562 336.300781 777.984375 336.277344 778.496094 336.304688 C 779.003906 336.332031 779.507812 336.40625 780 336.53125 C 780.496094 336.660156 780.972656 336.832031 781.433594 337.050781 C 781.894531 337.269531 782.328125 337.535156 782.738281 337.839844 C 783.148438 338.144531 783.523438 338.488281 783.863281 338.867188 C 784.207031 339.246094 784.507812 339.652344 784.769531 340.09375 C 785.027344 340.53125 785.246094 340.992188 785.414062 341.472656 C 785.585938 341.953125 785.707031 342.445312 785.78125 342.953125 C 787.703125 355.796875 789.011719 368.875 789.78125 381.875 Z M 781.011719 496.949219 C 781.085938 497.484375 781.085938 498.023438 781.011719 498.5625 C 778.320312 511.253906 775.089844 524.023438 771.242188 536.410156 C 771.121094 536.917969 770.949219 537.414062 770.726562 537.890625 C 770.503906 538.363281 770.238281 538.8125 769.921875 539.234375 C 769.609375 539.65625 769.253906 540.039062 768.863281 540.390625 C 768.46875 540.738281 768.046875 541.042969 767.589844 541.304688 C 767.136719 541.566406 766.65625 541.777344 766.160156 541.941406 C 765.660156 542.105469 765.148438 542.21875 764.628906 542.277344 C 764.105469 542.335938 763.582031 542.34375 763.058594 542.296875 C 762.539062 542.25 762.023438 542.148438 761.523438 541.996094 C 761.019531 541.84375 760.539062 541.640625 760.078125 541.390625 C 759.613281 541.136719 759.183594 540.84375 758.785156 540.503906 C 758.382812 540.164062 758.019531 539.789062 757.699219 539.375 C 757.375 538.960938 757.09375 538.515625 756.863281 538.046875 C 756.628906 537.574219 756.445312 537.085938 756.3125 536.578125 C 756.183594 536.070312 756.101562 535.554688 756.074219 535.027344 C 756.046875 534.503906 756.074219 533.984375 756.15625 533.464844 C 756.234375 532.945312 756.367188 532.4375 756.550781 531.945312 C 760.242188 519.945312 763.394531 507.640625 765.933594 495.410156 C 766.035156 494.910156 766.183594 494.425781 766.378906 493.957031 C 766.578125 493.488281 766.820312 493.042969 767.105469 492.621094 C 767.390625 492.199219 767.710938 491.808594 768.074219 491.453125 C 768.4375 491.09375 768.832031 490.777344 769.257812 490.496094 C 769.683594 490.21875 770.132812 489.984375 770.605469 489.792969 C 771.078125 489.605469 771.5625 489.460938 772.0625 489.367188 C 772.5625 489.277344 773.070312 489.230469 773.578125 489.238281 C 774.085938 489.246094 774.589844 489.300781 775.089844 489.410156 C 775.933594 489.609375 776.726562 489.945312 777.460938 490.414062 C 778.195312 490.882812 778.828125 491.457031 779.367188 492.144531 C 779.90625 492.828125 780.316406 493.582031 780.597656 494.40625 C 780.878906 495.230469 781.015625 496.078125 781.011719 496.949219 Z M 778.394531 306.335938 C 778.453125 306.839844 778.460938 307.347656 778.421875 307.855469 C 778.378906 308.359375 778.289062 308.859375 778.148438 309.347656 C 778.007812 309.835938 777.824219 310.308594 777.589844 310.757812 C 777.359375 311.210938 777.085938 311.636719 776.769531 312.035156 C 776.453125 312.433594 776.101562 312.796875 775.710938 313.125 C 775.324219 313.453125 774.910156 313.742188 774.464844 313.988281 C 774.019531 314.234375 773.554688 314.4375 773.070312 314.59375 C 772.589844 314.75 772.09375 314.855469 771.589844 314.914062 C 771.082031 314.972656 770.578125 314.980469 770.070312 314.9375 C 769.5625 314.898438 769.066406 314.804688 768.578125 314.667969 C 768.089844 314.527344 767.617188 314.339844 767.164062 314.109375 C 766.714844 313.875 766.289062 313.601562 765.890625 313.285156 C 765.492188 312.96875 765.128906 312.617188 764.800781 312.230469 C 764.46875 311.84375 764.183594 311.425781 763.9375 310.980469 C 763.6875 310.539062 763.488281 310.074219 763.332031 309.589844 C 763.175781 309.105469 763.070312 308.609375 763.011719 308.105469 C 760.089844 295.875 756.550781 283.722656 752.550781 271.800781 C 752.390625 271.320312 752.28125 270.828125 752.21875 270.328125 C 752.15625 269.824219 752.144531 269.324219 752.179688 268.816406 C 752.214844 268.3125 752.300781 267.816406 752.4375 267.332031 C 752.570312 266.84375 752.75 266.375 752.976562 265.921875 C 753.203125 265.46875 753.472656 265.046875 753.785156 264.644531 C 754.09375 264.246094 754.441406 263.882812 754.824219 263.550781 C 755.207031 263.222656 755.617188 262.929688 756.054688 262.683594 C 756.496094 262.433594 756.953125 262.226562 757.433594 262.070312 C 757.914062 261.910156 758.40625 261.796875 758.90625 261.734375 C 759.410156 261.671875 759.910156 261.660156 760.414062 261.699219 C 760.917969 261.734375 761.414062 261.820312 761.902344 261.953125 C 762.390625 262.089844 762.859375 262.269531 763.3125 262.496094 C 763.761719 262.722656 764.1875 262.992188 764.585938 263.300781 C 764.988281 263.613281 765.351562 263.957031 765.683594 264.339844 C 766.011719 264.722656 766.300781 265.132812 766.550781 265.574219 C 766.800781 266.011719 767.007812 266.472656 767.164062 266.953125 C 771.320312 279.183594 774.855469 291.875 778.011719 304.492188 C 778.214844 305.089844 778.34375 305.707031 778.394531 306.335938 Z M 758.550781 570.101562 C 758.539062 571.113281 758.332031 572.089844 757.933594 573.023438 C 753.011719 585.484375 747.550781 597.328125 741.550781 608.558594 C 741.316406 609.011719 741.042969 609.433594 740.730469 609.828125 C 740.414062 610.222656 740.0625 610.585938 739.675781 610.910156 C 739.289062 611.238281 738.875 611.523438 738.429688 611.765625 C 737.988281 612.011719 737.527344 612.210938 737.042969 612.363281 C 736.5625 612.519531 736.070312 612.625 735.566406 612.679688 C 735.0625 612.738281 734.558594 612.742188 734.054688 612.699219 C 733.550781 612.660156 733.054688 612.566406 732.570312 612.425781 C 732.082031 612.285156 731.617188 612.101562 731.167969 611.867188 C 730.714844 611.636719 730.292969 611.363281 729.898438 611.046875 C 729.503906 610.730469 729.140625 610.378906 728.816406 609.992188 C 728.488281 609.605469 728.203125 609.191406 727.957031 608.75 C 727.714844 608.304688 727.515625 607.84375 727.363281 607.359375 C 727.207031 606.878906 727.101562 606.386719 727.046875 605.882812 C 726.988281 605.378906 726.984375 604.878906 727.027344 604.371094 C 727.066406 603.867188 727.160156 603.375 727.300781 602.886719 C 727.441406 602.402344 727.625 601.933594 727.859375 601.484375 C 733.628906 590.328125 738.933594 578.792969 743.703125 567.175781 C 743.867188 566.761719 744.066406 566.363281 744.300781 565.984375 C 744.535156 565.601562 744.796875 565.246094 745.09375 564.910156 C 745.386719 564.574219 745.710938 564.269531 746.058594 563.992188 C 746.40625 563.710938 746.777344 563.464844 747.171875 563.253906 C 747.5625 563.039062 747.96875 562.859375 748.390625 562.714844 C 748.8125 562.574219 749.246094 562.46875 749.6875 562.398438 C 750.128906 562.332031 750.570312 562.304688 751.019531 562.3125 C 751.464844 562.320312 751.90625 562.367188 752.34375 562.457031 C 752.78125 562.542969 753.210938 562.664062 753.625 562.824219 C 754.042969 562.984375 754.441406 563.179688 754.824219 563.410156 C 755.207031 563.640625 755.566406 563.902344 755.902344 564.195312 C 756.242188 564.488281 756.550781 564.808594 756.832031 565.15625 C 757.113281 565.5 757.359375 565.871094 757.578125 566.257812 C 757.796875 566.648438 757.976562 567.054688 758.125 567.476562 C 758.269531 567.898438 758.378906 568.328125 758.453125 568.769531 C 758.523438 569.210938 758.554688 569.652344 758.550781 570.101562 Z M 753.933594 233.261719 C 753.9375 233.703125 753.902344 234.140625 753.832031 234.578125 C 753.761719 235.011719 753.652344 235.4375 753.507812 235.855469 C 753.363281 236.273438 753.183594 236.671875 752.96875 237.058594 C 752.753906 237.445312 752.507812 237.808594 752.230469 238.152344 C 751.953125 238.496094 751.648438 238.8125 751.316406 239.105469 C 750.984375 239.394531 750.632812 239.65625 750.253906 239.886719 C 749.878906 240.117188 749.484375 240.3125 749.074219 240.476562 C 748.664062 240.636719 748.242188 240.765625 747.8125 240.855469 C 747.378906 240.945312 746.941406 240.996094 746.503906 241.011719 C 746.0625 241.027344 745.621094 241.003906 745.183594 240.941406 C 744.746094 240.882812 744.320312 240.785156 743.898438 240.652344 C 743.476562 240.515625 743.074219 240.347656 742.679688 240.140625 C 742.289062 239.9375 741.917969 239.703125 741.570312 239.433594 C 741.21875 239.164062 740.894531 238.871094 740.59375 238.546875 C 740.292969 238.222656 740.023438 237.875 739.785156 237.503906 C 739.546875 237.132812 739.339844 236.746094 739.164062 236.339844 C 734.089844 224.878906 728.472656 213.261719 722.472656 202.492188 C 722.222656 202.050781 722.015625 201.589844 721.851562 201.105469 C 721.691406 200.625 721.578125 200.128906 721.515625 199.625 C 721.449219 199.121094 721.4375 198.613281 721.472656 198.105469 C 721.507812 197.597656 721.59375 197.097656 721.726562 196.605469 C 721.859375 196.117188 722.039062 195.644531 722.265625 195.1875 C 722.496094 194.730469 722.765625 194.304688 723.074219 193.902344 C 723.386719 193.5 723.734375 193.128906 724.121094 192.796875 C 724.503906 192.460938 724.917969 192.167969 725.359375 191.917969 C 725.800781 191.664062 726.261719 191.457031 726.746094 191.296875 C 727.226562 191.132812 727.722656 191.019531 728.226562 190.957031 C 728.730469 190.894531 729.238281 190.878906 729.746094 190.914062 C 730.253906 190.949219 730.753906 191.035156 731.246094 191.167969 C 731.734375 191.300781 732.207031 191.484375 732.664062 191.710938 C 733.121094 191.9375 733.546875 192.207031 733.949219 192.519531 C 734.355469 192.828125 734.722656 193.175781 735.054688 193.5625 C 735.390625 193.945312 735.683594 194.359375 735.933594 194.800781 C 742.164062 206.109375 748.011719 217.878906 753.242188 229.800781 C 753.796875 230.996094 754.027344 232.253906 753.933594 233.570312 Z M 723.167969 638.40625 C 723.171875 639.875 722.785156 641.234375 722.011719 642.484375 C 715.011719 653.480469 707.472656 664.25 699.628906 674.558594 C 699.320312 674.960938 698.972656 675.332031 698.589844 675.667969 C 698.210938 676.003906 697.796875 676.296875 697.355469 676.550781 C 696.917969 676.804688 696.457031 677.011719 695.972656 677.175781 C 695.492188 677.335938 695 677.449219 694.496094 677.515625 C 693.988281 677.578125 693.484375 677.59375 692.976562 677.554688 C 692.46875 677.519531 691.972656 677.433594 691.480469 677.300781 C 690.992188 677.164062 690.519531 676.984375 690.066406 676.753906 C 689.609375 676.527344 689.183594 676.257812 688.78125 675.945312 C 688.382812 675.632812 688.019531 675.289062 687.6875 674.910156 C 687.359375 674.53125 687.070312 674.121094 686.816406 673.683594 C 686.566406 673.246094 686.363281 672.789062 686.203125 672.3125 C 686.042969 671.832031 685.929688 671.34375 685.867188 670.84375 C 685.800781 670.34375 685.785156 669.84375 685.820312 669.339844 C 685.855469 668.839844 685.9375 668.34375 686.070312 667.859375 C 686.199219 667.371094 686.378906 666.902344 686.601562 666.449219 C 686.824219 666 687.089844 665.574219 687.398438 665.175781 C 695.089844 655.25 702.320312 644.867188 709.011719 634.40625 C 709.460938 633.710938 710.011719 633.101562 710.65625 632.582031 C 711.304688 632.0625 712.015625 631.660156 712.792969 631.371094 C 713.570312 631.082031 714.375 630.921875 715.203125 630.890625 C 716.03125 630.863281 716.84375 630.964844 717.640625 631.199219 C 718.4375 631.433594 719.175781 631.785156 719.855469 632.257812 C 720.539062 632.730469 721.128906 633.296875 721.625 633.960938 C 722.125 634.625 722.503906 635.347656 722.769531 636.136719 C 723.03125 636.921875 723.164062 637.730469 723.167969 638.558594 Z M 716.78125 165.957031 C 716.789062 166.59375 716.71875 167.21875 716.570312 167.839844 C 716.421875 168.457031 716.199219 169.050781 715.902344 169.613281 C 715.609375 170.175781 715.25 170.695312 714.824219 171.171875 C 714.402344 171.644531 713.925781 172.058594 713.398438 172.417969 C 712.976562 172.699219 712.53125 172.9375 712.0625 173.128906 C 711.59375 173.324219 711.113281 173.46875 710.613281 173.566406 C 710.117188 173.667969 709.617188 173.714844 709.109375 173.714844 C 708.601562 173.714844 708.101562 173.664062 707.601562 173.5625 C 707.105469 173.460938 706.625 173.316406 706.15625 173.121094 C 705.6875 172.925781 705.246094 172.683594 704.824219 172.402344 C 704.40625 172.117188 704.015625 171.796875 703.660156 171.4375 C 703.300781 171.078125 702.984375 170.6875 702.707031 170.261719 C 695.707031 159.878906 688.167969 149.726562 680.246094 139.957031 C 679.925781 139.5625 679.648438 139.140625 679.410156 138.691406 C 679.175781 138.246094 678.984375 137.777344 678.839844 137.292969 C 678.695312 136.804688 678.601562 136.3125 678.554688 135.804688 C 678.507812 135.300781 678.511719 134.796875 678.566406 134.292969 C 678.621094 133.789062 678.722656 133.296875 678.875 132.8125 C 679.023438 132.328125 679.222656 131.863281 679.464844 131.417969 C 679.707031 130.972656 679.992188 130.558594 680.316406 130.167969 C 680.644531 129.78125 681.003906 129.425781 681.398438 129.109375 C 681.789062 128.796875 682.210938 128.523438 682.65625 128.292969 C 683.101562 128.0625 683.566406 127.875 684.046875 127.734375 C 684.527344 127.59375 685.019531 127.5 685.519531 127.457031 C 686.019531 127.414062 686.519531 127.417969 687.019531 127.46875 C 687.519531 127.523438 688.007812 127.625 688.488281 127.773438 C 688.96875 127.925781 689.429688 128.117188 689.871094 128.359375 C 690.3125 128.597656 690.726562 128.878906 691.113281 129.199219 C 691.5 129.519531 691.851562 129.875 692.167969 130.265625 C 700.398438 140.339844 708.242188 150.957031 715.242188 161.722656 C 716.28125 163.058594 716.820312 164.574219 716.859375 166.261719 Z M 676.550781 699.636719 C 676.539062 700.59375 676.351562 701.515625 675.996094 702.40625 C 675.636719 703.296875 675.128906 704.089844 674.476562 704.789062 C 665.707031 714.402344 656.398438 723.710938 646.785156 732.480469 C 646.410156 732.820312 646.007812 733.121094 645.574219 733.382812 C 645.140625 733.644531 644.6875 733.863281 644.210938 734.035156 C 643.734375 734.207031 643.246094 734.332031 642.746094 734.40625 C 642.246094 734.480469 641.742188 734.507812 641.238281 734.484375 C 640.734375 734.460938 640.234375 734.390625 639.742188 734.269531 C 639.253906 734.148438 638.777344 733.976562 638.320312 733.761719 C 637.863281 733.550781 637.429688 733.292969 637.019531 732.992188 C 636.613281 732.691406 636.238281 732.355469 635.898438 731.980469 C 635.558594 731.605469 635.257812 731.203125 634.996094 730.769531 C 634.734375 730.335938 634.515625 729.882812 634.34375 729.40625 C 634.171875 728.929688 634.050781 728.441406 633.972656 727.941406 C 633.898438 727.441406 633.871094 726.941406 633.894531 726.433594 C 633.917969 725.929688 633.992188 725.429688 634.113281 724.941406 C 634.234375 724.449219 634.402344 723.972656 634.617188 723.515625 C 634.832031 723.058594 635.089844 722.625 635.386719 722.21875 C 635.6875 721.8125 636.023438 721.4375 636.398438 721.097656 C 645.707031 712.636719 654.707031 703.636719 663.167969 694.40625 C 663.691406 693.828125 664.289062 693.34375 664.960938 692.949219 C 665.632812 692.554688 666.347656 692.265625 667.105469 692.089844 C 667.863281 691.910156 668.628906 691.851562 669.40625 691.90625 C 670.183594 691.960938 670.933594 692.128906 671.660156 692.414062 C 672.386719 692.695312 673.050781 693.082031 673.660156 693.566406 C 674.269531 694.054688 674.792969 694.621094 675.230469 695.265625 C 675.664062 695.910156 675.996094 696.605469 676.222656 697.347656 C 676.449219 698.09375 676.558594 698.855469 676.550781 699.636719 Z M 668.859375 106.648438 C 668.855469 107.695312 668.648438 108.699219 668.234375 109.660156 C 667.820312 110.625 667.234375 111.464844 666.476562 112.1875 C 666.117188 112.542969 665.730469 112.859375 665.3125 113.136719 C 664.894531 113.414062 664.449219 113.652344 663.984375 113.84375 C 663.519531 114.035156 663.042969 114.179688 662.546875 114.277344 C 662.054688 114.375 661.554688 114.425781 661.050781 114.425781 C 660.550781 114.425781 660.050781 114.375 659.558594 114.277344 C 659.0625 114.179688 658.585938 114.035156 658.121094 113.84375 C 657.652344 113.652344 657.210938 113.414062 656.792969 113.136719 C 656.375 112.859375 655.984375 112.542969 655.628906 112.1875 C 646.9375 103.1875 637.707031 94.496094 628.167969 86.265625 C 627.785156 85.933594 627.4375 85.570312 627.125 85.167969 C 626.8125 84.769531 626.542969 84.34375 626.316406 83.890625 C 626.085938 83.4375 625.90625 82.96875 625.769531 82.480469 C 625.632812 81.992188 625.546875 81.496094 625.511719 80.988281 C 625.472656 80.484375 625.484375 79.980469 625.546875 79.476562 C 625.609375 78.972656 625.71875 78.484375 625.878906 78 C 626.035156 77.519531 626.242188 77.058594 626.492188 76.617188 C 626.738281 76.175781 627.03125 75.765625 627.359375 75.378906 C 627.691406 74.996094 628.058594 74.648438 628.457031 74.335938 C 628.855469 74.023438 629.28125 73.753906 629.734375 73.527344 C 630.1875 73.300781 630.65625 73.117188 631.144531 72.980469 C 631.632812 72.847656 632.128906 72.761719 632.636719 72.722656 C 633.140625 72.683594 633.644531 72.695312 634.148438 72.757812 C 634.652344 72.820312 635.144531 72.929688 635.625 73.089844 C 636.105469 73.25 636.566406 73.453125 637.007812 73.703125 C 637.449219 73.953125 637.859375 74.242188 638.246094 74.574219 C 647.707031 82.957031 656.9375 91.957031 666.320312 100.878906 C 667.046875 101.660156 667.597656 102.550781 667.96875 103.550781 C 668.34375 104.550781 668.511719 105.582031 668.476562 106.648438 Z M 619.785156 751.402344 C 619.773438 752.601562 619.496094 753.734375 618.953125 754.800781 C 618.414062 755.867188 617.664062 756.761719 616.707031 757.480469 C 606.398438 765.171875 595.554688 772.863281 584.632812 779.789062 C 584.203125 780.058594 583.753906 780.285156 583.285156 780.464844 C 582.8125 780.648438 582.328125 780.78125 581.832031 780.867188 C 581.332031 780.953125 580.832031 780.992188 580.328125 780.976562 C 579.820312 780.964844 579.324219 780.90625 578.828125 780.792969 C 578.335938 780.683594 577.859375 780.523438 577.398438 780.320312 C 576.9375 780.117188 576.5 779.867188 576.085938 779.578125 C 575.671875 779.285156 575.292969 778.957031 574.945312 778.589844 C 574.59375 778.226562 574.285156 777.828125 574.015625 777.402344 C 573.746094 776.976562 573.519531 776.527344 573.335938 776.054688 C 573.15625 775.585938 573.023438 775.101562 572.9375 774.601562 C 572.847656 774.105469 572.8125 773.601562 572.824219 773.097656 C 572.835938 772.59375 572.898438 772.09375 573.007812 771.601562 C 573.121094 771.109375 573.277344 770.632812 573.484375 770.167969 C 573.6875 769.707031 573.933594 769.269531 574.226562 768.855469 C 574.515625 768.445312 574.84375 768.0625 575.210938 767.714844 C 575.578125 767.367188 575.972656 767.058594 576.402344 766.789062 C 587.015625 760.09375 597.398438 752.863281 607.167969 745.25 C 607.585938 744.910156 608.035156 744.613281 608.515625 744.367188 C 608.996094 744.121094 609.496094 743.929688 610.019531 743.789062 C 610.539062 743.644531 611.070312 743.5625 611.609375 743.53125 C 612.148438 743.503906 612.683594 743.53125 613.21875 743.613281 C 613.75 743.695312 614.269531 743.835938 614.773438 744.027344 C 615.277344 744.21875 615.757812 744.460938 616.210938 744.757812 C 616.664062 745.050781 617.078125 745.386719 617.460938 745.769531 C 617.84375 746.148438 618.183594 746.566406 618.476562 747.019531 C 619.367188 748.34375 619.804688 749.804688 619.785156 751.402344 Z M 610.324219 56.496094 C 610.3125 58.140625 609.824219 59.625 608.859375 60.957031 C 608.566406 61.367188 608.234375 61.742188 607.867188 62.082031 C 607.5 62.425781 607.101562 62.730469 606.675781 62.996094 C 606.25 63.257812 605.800781 63.480469 605.328125 63.65625 C 604.859375 63.832031 604.375 63.964844 603.878906 64.046875 C 603.382812 64.128906 602.882812 64.160156 602.382812 64.144531 C 601.878906 64.128906 601.382812 64.0625 600.894531 63.953125 C 600.402344 63.839844 599.929688 63.679688 599.472656 63.472656 C 599.011719 63.265625 598.578125 63.019531 598.167969 62.726562 C 587.9375 55.035156 577.324219 48.417969 566.554688 42.035156 C 566.171875 41.757812 565.820312 41.449219 565.496094 41.105469 C 565.171875 40.761719 564.878906 40.394531 564.621094 39.996094 C 564.367188 39.601562 564.148438 39.183594 563.96875 38.746094 C 563.789062 38.3125 563.648438 37.863281 563.550781 37.398438 C 563.453125 36.9375 563.398438 36.472656 563.390625 36 C 563.378906 35.527344 563.410156 35.058594 563.484375 34.59375 C 563.558594 34.125 563.675781 33.671875 563.835938 33.226562 C 563.992188 32.78125 564.191406 32.355469 564.429688 31.949219 C 564.667969 31.539062 564.9375 31.15625 565.246094 30.800781 C 565.554688 30.441406 565.890625 30.113281 566.261719 29.820312 C 566.628906 29.523438 567.019531 29.261719 567.433594 29.039062 C 567.851562 28.816406 568.285156 28.632812 568.734375 28.488281 C 569.183594 28.34375 569.640625 28.242188 570.109375 28.183594 C 570.578125 28.125 571.046875 28.109375 571.519531 28.132812 C 571.992188 28.160156 572.457031 28.230469 572.914062 28.34375 C 573.371094 28.457031 573.816406 28.609375 574.246094 28.804688 C 585.398438 35.421875 596.398438 42.652344 606.9375 50.1875 C 607.988281 50.898438 608.808594 51.808594 609.410156 52.925781 C 610.007812 54.039062 610.3125 55.230469 610.324219 56.496094 Z M 554.785156 792.25 C 554.792969 792.960938 554.707031 793.660156 554.519531 794.351562 C 554.332031 795.039062 554.058594 795.6875 553.691406 796.296875 C 553.324219 796.910156 552.878906 797.460938 552.359375 797.949219 C 551.839844 798.4375 551.265625 798.84375 550.632812 799.171875 C 539.015625 805.09375 527.09375 810.554688 515.015625 815.402344 C 514.539062 815.589844 514.050781 815.730469 513.542969 815.824219 C 513.039062 815.914062 512.53125 815.957031 512.019531 815.949219 C 511.503906 815.941406 510.996094 815.882812 510.496094 815.773438 C 509.996094 815.667969 509.507812 815.511719 509.039062 815.304688 C 508.566406 815.101562 508.121094 814.855469 507.699219 814.5625 C 507.277344 814.273438 506.886719 813.941406 506.527344 813.574219 C 506.171875 813.207031 505.851562 812.804688 505.574219 812.375 C 505.296875 811.945312 505.0625 811.492188 504.871094 811.011719 C 504.683594 810.535156 504.542969 810.046875 504.449219 809.542969 C 504.359375 809.035156 504.316406 808.527344 504.324219 808.015625 C 504.328125 807.5 504.386719 806.996094 504.496094 806.492188 C 504.601562 805.992188 504.757812 805.503906 504.960938 805.035156 C 505.164062 804.5625 505.410156 804.113281 505.703125 803.691406 C 505.992188 803.269531 506.320312 802.878906 506.691406 802.523438 C 507.058594 802.164062 507.457031 801.847656 507.886719 801.566406 C 508.316406 801.289062 508.773438 801.054688 509.25 800.863281 C 520.863281 796.171875 532.324219 790.941406 543.632812 785.480469 C 544.078125 785.253906 544.542969 785.070312 545.027344 784.933594 C 545.511719 784.796875 546.003906 784.710938 546.503906 784.667969 C 547.003906 784.628906 547.503906 784.636719 548 784.695312 C 548.5 784.753906 548.988281 784.859375 549.464844 785.011719 C 549.945312 785.167969 550.402344 785.363281 550.839844 785.609375 C 551.28125 785.851562 551.691406 786.132812 552.074219 786.457031 C 552.460938 786.78125 552.808594 787.140625 553.121094 787.53125 C 553.433594 787.921875 553.707031 788.339844 553.941406 788.785156 C 554.519531 789.867188 554.800781 791.023438 554.785156 792.25 Z M 544.246094 17.34375 C 544.242188 18.503906 543.984375 19.605469 543.476562 20.652344 C 543.261719 21.105469 543 21.53125 542.699219 21.933594 C 542.394531 22.339844 542.058594 22.707031 541.683594 23.042969 C 541.308594 23.378906 540.902344 23.675781 540.46875 23.933594 C 540.039062 24.191406 539.582031 24.402344 539.109375 24.570312 C 538.632812 24.738281 538.148438 24.859375 537.648438 24.929688 C 537.152344 25.003906 536.652344 25.023438 536.148438 25 C 535.644531 24.972656 535.148438 24.898438 534.660156 24.773438 C 534.171875 24.652344 533.703125 24.480469 533.246094 24.265625 C 521.863281 18.804688 510.171875 13.882812 498.480469 9.496094 C 498.046875 9.296875 497.632812 9.054688 497.246094 8.777344 C 496.855469 8.496094 496.496094 8.1875 496.164062 7.839844 C 495.835938 7.492188 495.539062 7.121094 495.277344 6.71875 C 495.015625 6.320312 494.796875 5.898438 494.613281 5.453125 C 494.429688 5.011719 494.292969 4.554688 494.195312 4.089844 C 494.097656 3.621094 494.042969 3.144531 494.035156 2.667969 C 494.027344 2.1875 494.0625 1.714844 494.140625 1.242188 C 494.222656 0.769531 494.34375 0.308594 494.507812 -0.140625 C 494.675781 -0.585938 494.878906 -1.015625 495.125 -1.429688 C 495.371094 -1.839844 495.652344 -2.222656 495.972656 -2.582031 C 496.289062 -2.9375 496.636719 -3.265625 497.015625 -3.558594 C 497.394531 -3.851562 497.796875 -4.105469 498.222656 -4.324219 C 498.648438 -4.542969 499.089844 -4.71875 499.546875 -4.855469 C 500.007812 -4.988281 500.476562 -5.082031 500.949219 -5.128906 C 501.425781 -5.175781 501.902344 -5.179688 502.378906 -5.140625 C 502.855469 -5.097656 503.324219 -5.015625 503.785156 -4.886719 C 516.015625 -0.347656 528.09375 4.726562 539.863281 10.496094 C 540.511719 10.804688 541.105469 11.199219 541.644531 11.671875 C 542.183594 12.148438 542.644531 12.6875 543.035156 13.292969 C 543.421875 13.898438 543.71875 14.546875 543.925781 15.234375 C 544.128906 15.921875 544.238281 16.625 544.246094 17.34375 Z M 483.554688 821.015625 C 483.59375 821.871094 483.488281 822.707031 483.25 823.527344 C 483.007812 824.34375 482.636719 825.101562 482.144531 825.796875 C 481.648438 826.496094 481.054688 827.09375 480.363281 827.589844 C 479.667969 828.089844 478.914062 828.460938 478.09375 828.710938 C 465.710938 832.476562 452.941406 835.707031 440.171875 838.324219 C 439.667969 838.425781 439.15625 838.476562 438.640625 838.476562 C 438.125 838.480469 437.617188 838.429688 437.109375 838.332031 C 436.605469 838.230469 436.113281 838.082031 435.636719 837.886719 C 435.160156 837.691406 434.707031 837.449219 434.277344 837.164062 C 433.847656 836.878906 433.453125 836.554688 433.085938 836.1875 C 432.722656 835.824219 432.394531 835.429688 432.109375 835 C 431.820312 834.574219 431.578125 834.121094 431.382812 833.644531 C 431.183594 833.167969 431.035156 832.679688 430.933594 832.171875 C 430.832031 831.667969 430.78125 831.15625 430.78125 830.640625 C 430.78125 830.125 430.832031 829.613281 430.929688 829.109375 C 431.03125 828.605469 431.179688 828.113281 431.375 827.636719 C 431.574219 827.160156 431.816406 826.707031 432.101562 826.277344 C 432.386719 825.851562 432.710938 825.453125 433.078125 825.089844 C 433.441406 824.722656 433.835938 824.398438 434.265625 824.113281 C 434.695312 823.824219 435.148438 823.582031 435.625 823.386719 C 436.097656 823.1875 436.589844 823.039062 437.097656 822.941406 C 449.402344 820.402344 461.710938 817.324219 473.632812 813.632812 C 473.925781 813.542969 474.222656 813.472656 474.527344 813.417969 C 474.828125 813.363281 475.132812 813.328125 475.4375 813.3125 C 475.742188 813.292969 476.046875 813.296875 476.355469 813.316406 C 476.660156 813.335938 476.964844 813.371094 477.265625 813.425781 C 477.566406 813.484375 477.863281 813.554688 478.15625 813.648438 C 478.449219 813.738281 478.734375 813.84375 479.011719 813.972656 C 479.292969 814.097656 479.5625 814.238281 479.828125 814.394531 C 480.089844 814.550781 480.34375 814.726562 480.585938 814.914062 C 480.828125 815.101562 481.054688 815.300781 481.273438 815.515625 C 481.492188 815.730469 481.695312 815.960938 481.886719 816.199219 C 482.078125 816.4375 482.253906 816.6875 482.414062 816.949219 C 482.578125 817.210938 482.722656 817.480469 482.851562 817.757812 C 482.980469 818.035156 483.089844 818.320312 483.1875 818.609375 C 483.28125 818.902344 483.359375 819.199219 483.417969 819.5 C 483.476562 819.800781 483.519531 820.101562 483.542969 820.40625 C 483.566406 820.710938 483.570312 821.019531 483.554688 821.324219 Z M 472.25 -9.734375 C 472.363281 -9.039062 472.363281 -8.347656 472.25 -7.65625 C 472.117188 -7.167969 471.9375 -6.699219 471.710938 -6.246094 C 471.484375 -5.792969 471.214844 -5.367188 470.90625 -4.96875 C 470.59375 -4.570312 470.25 -4.203125 469.867188 -3.875 C 469.484375 -3.542969 469.074219 -3.253906 468.632812 -3.003906 C 468.195312 -2.753906 467.734375 -2.546875 467.257812 -2.386719 C 466.777344 -2.230469 466.285156 -2.117188 465.785156 -2.054688 C 465.28125 -1.992188 464.78125 -1.980469 464.273438 -2.015625 C 463.769531 -2.050781 463.273438 -2.136719 462.789062 -2.273438 C 450.789062 -5.578125 438.328125 -8.347656 426.019531 -10.578125 C 425.523438 -10.667969 425.039062 -10.804688 424.566406 -10.988281 C 424.097656 -11.171875 423.648438 -11.398438 423.222656 -11.671875 C 422.796875 -11.941406 422.402344 -12.253906 422.035156 -12.601562 C 421.671875 -12.953125 421.34375 -13.335938 421.054688 -13.75 C 420.765625 -14.164062 420.519531 -14.601562 420.316406 -15.066406 C 420.113281 -15.527344 419.957031 -16.007812 419.847656 -16.5 C 419.742188 -16.992188 419.679688 -17.492188 419.671875 -17.996094 C 419.660156 -18.503906 419.699219 -19.003906 419.789062 -19.5 C 419.878906 -20 420.011719 -20.484375 420.195312 -20.953125 C 420.378906 -21.425781 420.609375 -21.875 420.878906 -22.300781 C 421.152344 -22.726562 421.460938 -23.121094 421.8125 -23.484375 C 422.164062 -23.851562 422.542969 -24.175781 422.960938 -24.464844 C 423.375 -24.753906 423.8125 -25 424.273438 -25.203125 C 424.738281 -25.40625 425.214844 -25.5625 425.710938 -25.671875 C 426.203125 -25.78125 426.703125 -25.839844 427.207031 -25.851562 C 427.710938 -25.859375 428.214844 -25.820312 428.710938 -25.734375 C 441.558594 -23.425781 454.328125 -20.5 467.171875 -17.117188 C 467.953125 -16.84375 468.675781 -16.457031 469.332031 -15.949219 C 469.988281 -15.445312 470.546875 -14.851562 471.011719 -14.164062 C 471.476562 -13.476562 471.820312 -12.738281 472.046875 -11.9375 C 472.269531 -11.140625 472.363281 -10.328125 472.324219 -9.503906 Z M 408.40625 836.402344 C 408.40625 836.871094 408.367188 837.339844 408.285156 837.804688 C 408.199219 838.269531 408.074219 838.722656 407.910156 839.160156 C 407.742188 839.601562 407.539062 840.023438 407.292969 840.429688 C 407.050781 840.832031 406.773438 841.210938 406.457031 841.5625 C 406.144531 841.914062 405.800781 842.234375 405.429688 842.523438 C 405.058594 842.8125 404.660156 843.066406 404.242188 843.28125 C 403.824219 843.5 403.390625 843.675781 402.9375 843.8125 C 402.488281 843.949219 402.027344 844.042969 401.558594 844.09375 C 388.710938 845.707031 375.558594 846.632812 362.558594 847.015625 C 362.054688 847.015625 361.554688 846.96875 361.058594 846.867188 C 360.5625 846.769531 360.082031 846.625 359.617188 846.429688 C 359.148438 846.238281 358.707031 846 358.285156 845.71875 C 357.867188 845.4375 357.476562 845.121094 357.121094 844.761719 C 356.761719 844.40625 356.445312 844.019531 356.164062 843.597656 C 355.882812 843.179688 355.644531 842.734375 355.453125 842.269531 C 355.257812 841.800781 355.113281 841.320312 355.015625 840.824219 C 354.917969 840.328125 354.867188 839.828125 354.867188 839.324219 C 354.867188 838.820312 354.917969 838.320312 355.015625 837.824219 C 355.113281 837.328125 355.257812 836.847656 355.453125 836.378906 C 355.644531 835.914062 355.882812 835.46875 356.164062 835.050781 C 356.445312 834.628906 356.761719 834.242188 357.121094 833.886719 C 357.476562 833.527344 357.867188 833.210938 358.285156 832.929688 C 358.707031 832.648438 359.148438 832.410156 359.617188 832.21875 C 360.082031 832.023438 360.5625 831.878906 361.058594 831.78125 C 361.554688 831.679688 362.054688 831.632812 362.558594 831.632812 C 375.097656 831.632812 387.789062 830.402344 400.171875 828.941406 C 400.675781 828.882812 401.179688 828.871094 401.683594 828.914062 C 402.1875 828.953125 402.683594 829.042969 403.171875 829.179688 C 403.660156 829.320312 404.128906 829.503906 404.578125 829.734375 C 405.027344 829.964844 405.453125 830.238281 405.847656 830.550781 C 406.246094 830.867188 406.605469 831.214844 406.933594 831.601562 C 407.261719 831.988281 407.546875 832.402344 407.792969 832.84375 C 408.039062 833.289062 408.238281 833.75 408.394531 834.230469 C 408.550781 834.714844 408.65625 835.207031 408.710938 835.707031 Z M 396.636719 -22.964844 L 396.636719 -22.195312 C 396.585938 -21.691406 396.492188 -21.199219 396.34375 -20.714844 C 396.199219 -20.230469 396.007812 -19.765625 395.773438 -19.320312 C 395.535156 -18.875 395.257812 -18.457031 394.9375 -18.066406 C 394.621094 -17.675781 394.265625 -17.320312 393.875 -16.996094 C 393.488281 -16.675781 393.070312 -16.394531 392.625 -16.15625 C 392.179688 -15.917969 391.71875 -15.722656 391.234375 -15.574219 C 390.753906 -15.425781 390.261719 -15.328125 389.757812 -15.277344 C 389.257812 -15.226562 388.753906 -15.222656 388.25 -15.269531 C 375.789062 -16.347656 363.097656 -16.886719 350.558594 -16.886719 C 350.054688 -16.886719 349.554688 -16.9375 349.058594 -17.035156 C 348.5625 -17.132812 348.082031 -17.277344 347.617188 -17.472656 C 347.148438 -17.664062 346.707031 -17.902344 346.285156 -18.183594 C 345.867188 -18.464844 345.476562 -18.78125 345.121094 -19.140625 C 344.761719 -19.496094 344.445312 -19.886719 344.164062 -20.304688 C 343.882812 -20.726562 343.644531 -21.167969 343.453125 -21.636719 C 343.257812 -22.101562 343.113281 -22.582031 343.015625 -23.078125 C 342.917969 -23.574219 342.867188 -24.074219 342.867188 -24.578125 C 342.867188 -25.082031 342.917969 -25.582031 343.015625 -26.078125 C 343.113281 -26.574219 343.257812 -27.054688 343.453125 -27.523438 C 343.644531 -27.988281 343.882812 -28.433594 344.164062 -28.851562 C 344.445312 -29.273438 344.761719 -29.660156 345.121094 -30.019531 C 345.476562 -30.375 345.867188 -30.695312 346.285156 -30.972656 C 346.707031 -31.253906 347.148438 -31.492188 347.617188 -31.683594 C 348.082031 -31.878906 348.5625 -32.023438 349.058594 -32.121094 C 349.554688 -32.222656 350.054688 -32.269531 350.558594 -32.269531 C 363.558594 -32.269531 376.710938 -31.730469 389.636719 -30.578125 C 390.109375 -30.535156 390.570312 -30.449219 391.027344 -30.320312 C 391.484375 -30.191406 391.925781 -30.023438 392.351562 -29.8125 C 392.773438 -29.605469 393.175781 -29.355469 393.554688 -29.074219 C 393.9375 -28.789062 394.285156 -28.472656 394.605469 -28.125 C 394.925781 -27.773438 395.214844 -27.398438 395.464844 -26.996094 C 395.714844 -26.59375 395.929688 -26.171875 396.101562 -25.730469 C 396.277344 -25.292969 396.40625 -24.839844 396.496094 -24.371094 C 396.585938 -23.90625 396.632812 -23.4375 396.636719 -22.964844 Z M 331.636719 838.554688 L 331.636719 839.324219 C 331.601562 839.828125 331.519531 840.320312 331.390625 840.804688 C 331.257812 841.292969 331.082031 841.761719 330.855469 842.210938 C 330.632812 842.664062 330.371094 843.085938 330.0625 843.488281 C 329.757812 843.886719 329.414062 844.25 329.035156 844.582031 C 328.65625 844.914062 328.25 845.207031 327.816406 845.457031 C 327.378906 845.710938 326.921875 845.917969 326.445312 846.082031 C 325.972656 846.242188 325.484375 846.359375 324.984375 846.425781 C 324.484375 846.492188 323.984375 846.507812 323.484375 846.476562 C 310.484375 845.707031 297.40625 844.324219 284.5625 842.402344 C 284.054688 842.324219 283.5625 842.199219 283.082031 842.027344 C 282.601562 841.855469 282.144531 841.636719 281.707031 841.375 C 281.265625 841.109375 280.859375 840.808594 280.480469 840.464844 C 280.105469 840.121094 279.761719 839.742188 279.460938 839.332031 C 279.15625 838.921875 278.894531 838.484375 278.679688 838.023438 C 278.460938 837.5625 278.289062 837.082031 278.167969 836.585938 C 278.042969 836.089844 277.96875 835.589844 277.945312 835.078125 C 277.921875 834.566406 277.945312 834.058594 278.023438 833.554688 C 278.097656 833.050781 278.222656 832.558594 278.394531 832.078125 C 278.570312 831.597656 278.785156 831.136719 279.050781 830.699219 C 279.3125 830.261719 279.617188 829.855469 279.960938 829.476562 C 280.304688 829.097656 280.679688 828.757812 281.089844 828.453125 C 281.503906 828.148438 281.9375 827.890625 282.402344 827.671875 C 282.863281 827.453125 283.339844 827.285156 283.835938 827.160156 C 284.332031 827.039062 284.835938 826.964844 285.347656 826.941406 C 285.855469 826.914062 286.363281 826.941406 286.867188 827.015625 C 299.253906 828.941406 311.867188 830.246094 324.40625 831.015625 C 324.886719 831.046875 325.363281 831.121094 325.832031 831.238281 C 326.300781 831.355469 326.753906 831.515625 327.191406 831.722656 C 327.628906 831.925781 328.042969 832.167969 328.4375 832.449219 C 328.828125 832.730469 329.191406 833.046875 329.523438 833.398438 C 329.855469 833.75 330.152344 834.128906 330.414062 834.535156 C 330.675781 834.941406 330.898438 835.367188 331.078125 835.8125 C 331.257812 836.261719 331.394531 836.722656 331.488281 837.195312 C 331.582031 837.671875 331.632812 838.148438 331.636719 838.632812 Z M 255.714844 827.171875 L 255.714844 829.015625 C 255.597656 829.523438 255.433594 830.011719 255.21875 830.484375 C 255.003906 830.957031 254.742188 831.402344 254.4375 831.820312 C 254.132812 832.242188 253.789062 832.625 253.40625 832.976562 C 253.019531 833.324219 252.605469 833.632812 252.160156 833.898438 C 251.714844 834.164062 251.246094 834.382812 250.757812 834.554688 C 250.269531 834.726562 249.765625 834.84375 249.253906 834.914062 C 248.738281 834.984375 248.222656 835.003906 247.703125 834.96875 C 247.1875 834.933594 246.675781 834.847656 246.175781 834.707031 C 233.871094 831.632812 220.945312 827.941406 208.640625 823.941406 C 208.160156 823.777344 207.699219 823.570312 207.261719 823.320312 C 206.824219 823.066406 206.414062 822.773438 206.03125 822.441406 C 205.648438 822.109375 205.304688 821.742188 204.996094 821.339844 C 204.6875 820.941406 204.417969 820.511719 204.195312 820.058594 C 203.96875 819.605469 203.789062 819.132812 203.65625 818.644531 C 203.527344 818.15625 203.441406 817.660156 203.40625 817.15625 C 203.375 816.648438 203.390625 816.144531 203.453125 815.644531 C 203.519531 815.140625 203.632812 814.652344 203.792969 814.171875 C 203.957031 813.691406 204.164062 813.230469 204.414062 812.792969 C 204.667969 812.355469 204.960938 811.941406 205.292969 811.5625 C 205.625 811.179688 205.992188 810.835938 206.394531 810.527344 C 206.792969 810.21875 207.222656 809.949219 207.675781 809.726562 C 208.128906 809.5 208.597656 809.320312 209.089844 809.1875 C 209.578125 809.058594 210.074219 808.972656 210.578125 808.9375 C 211.085938 808.90625 211.585938 808.921875 212.089844 808.984375 C 212.59375 809.050781 213.082031 809.164062 213.5625 809.324219 C 225.410156 813.402344 237.640625 817.015625 249.792969 819.941406 C 250.621094 820.136719 251.394531 820.460938 252.117188 820.914062 C 252.835938 821.363281 253.464844 821.921875 254 822.582031 C 254.539062 823.246094 254.953125 823.972656 255.246094 824.773438 C 255.539062 825.570312 255.695312 826.398438 255.714844 827.246094 Z M 183.023438 802.402344 C 183.007812 803.476562 182.777344 804.5 182.332031 805.480469 C 182.132812 805.933594 181.890625 806.367188 181.605469 806.777344 C 181.320312 807.1875 180.996094 807.5625 180.636719 807.910156 C 180.28125 808.257812 179.890625 808.566406 179.472656 808.835938 C 179.054688 809.109375 178.613281 809.335938 178.148438 809.519531 C 177.6875 809.707031 177.210938 809.84375 176.71875 809.9375 C 176.230469 810.03125 175.734375 810.074219 175.238281 810.070312 C 174.738281 810.066406 174.246094 810.015625 173.757812 809.917969 C 173.269531 809.816406 172.792969 809.671875 172.332031 809.480469 C 160.488281 804.25 148.640625 798.324219 137.332031 792.019531 C 136.890625 791.765625 136.476562 791.472656 136.09375 791.136719 C 135.710938 790.804688 135.359375 790.4375 135.050781 790.035156 C 134.738281 789.632812 134.46875 789.203125 134.242188 788.746094 C 134.011719 788.292969 133.832031 787.816406 133.699219 787.328125 C 133.5625 786.835938 133.480469 786.335938 133.445312 785.828125 C 133.40625 785.320312 133.421875 784.8125 133.488281 784.308594 C 133.550781 783.804688 133.664062 783.308594 133.824219 782.828125 C 133.984375 782.34375 134.195312 781.882812 134.445312 781.4375 C 134.699219 780.996094 134.992188 780.582031 135.324219 780.199219 C 135.660156 779.816406 136.027344 779.46875 136.429688 779.15625 C 136.832031 778.84375 137.261719 778.574219 137.71875 778.347656 C 138.175781 778.121094 138.648438 777.941406 139.140625 777.804688 C 139.628906 777.671875 140.128906 777.585938 140.636719 777.550781 C 141.144531 777.515625 141.652344 777.53125 142.15625 777.59375 C 142.660156 777.660156 143.15625 777.773438 143.640625 777.933594 C 144.121094 778.097656 144.585938 778.304688 145.027344 778.554688 C 155.949219 784.632812 167.332031 790.324219 178.792969 795.402344 C 179.445312 795.730469 180.039062 796.144531 180.574219 796.640625 C 181.109375 797.136719 181.5625 797.699219 181.9375 798.324219 C 182.3125 798.953125 182.59375 799.617188 182.777344 800.324219 C 182.960938 801.03125 183.042969 801.75 183.023438 802.480469 Z M 115.871094 765.09375 C 115.867188 765.789062 115.769531 766.472656 115.578125 767.140625 C 115.386719 767.808594 115.109375 768.441406 114.746094 769.035156 C 114.386719 769.628906 113.953125 770.164062 113.445312 770.640625 C 112.9375 771.117188 112.375 771.515625 111.761719 771.839844 C 111.144531 772.164062 110.496094 772.398438 109.816406 772.546875 C 109.136719 772.695312 108.449219 772.75 107.757812 772.710938 C 107.0625 772.671875 106.386719 772.542969 105.726562 772.320312 C 105.066406 772.097656 104.449219 771.792969 103.871094 771.402344 C 93.105469 764.09375 82.488281 756.019531 72.488281 748.328125 C 72.125 748 71.796875 747.640625 71.5 747.25 C 71.207031 746.863281 70.949219 746.449219 70.734375 746.007812 C 70.515625 745.570312 70.34375 745.117188 70.214844 744.644531 C 70.085938 744.171875 70 743.691406 69.964844 743.207031 C 69.925781 742.71875 69.933594 742.230469 69.988281 741.746094 C 70.042969 741.257812 70.144531 740.78125 70.289062 740.316406 C 70.433594 739.847656 70.621094 739.402344 70.855469 738.96875 C 71.085938 738.539062 71.355469 738.132812 71.664062 737.753906 C 71.972656 737.375 72.3125 737.027344 72.6875 736.714844 C 73.0625 736.398438 73.464844 736.125 73.890625 735.886719 C 74.316406 735.648438 74.761719 735.453125 75.226562 735.300781 C 75.691406 735.148438 76.167969 735.039062 76.652344 734.976562 C 77.136719 734.914062 77.625 734.898438 78.113281 734.929688 C 78.601562 734.960938 79.082031 735.035156 79.554688 735.160156 C 80.027344 735.28125 80.484375 735.445312 80.925781 735.65625 C 81.367188 735.863281 81.785156 736.113281 82.179688 736.402344 C 91.875 744.097656 102.105469 751.789062 112.488281 759.019531 C 113.515625 759.710938 114.328125 760.601562 114.921875 761.6875 C 115.519531 762.773438 115.835938 763.933594 115.871094 765.171875 Z M 56.335938 716.25 C 56.332031 717.242188 56.144531 718.195312 55.769531 719.113281 C 55.398438 720.03125 54.867188 720.84375 54.183594 721.558594 C 53.824219 721.914062 53.4375 722.230469 53.019531 722.507812 C 52.597656 722.785156 52.15625 723.023438 51.691406 723.214844 C 51.226562 723.40625 50.746094 723.550781 50.253906 723.648438 C 49.761719 723.746094 49.261719 723.792969 48.757812 723.792969 C 48.253906 723.792969 47.757812 723.746094 47.265625 723.648438 C 46.769531 723.550781 46.289062 723.40625 45.824219 723.214844 C 45.359375 723.023438 44.917969 722.785156 44.5 722.507812 C 44.082031 722.230469 43.691406 721.914062 43.335938 721.558594 C 33.875 712.941406 25.027344 703.328125 16.566406 693.171875 C 16.238281 692.789062 15.949219 692.378906 15.703125 691.9375 C 15.457031 691.496094 15.253906 691.035156 15.097656 690.554688 C 14.941406 690.074219 14.832031 689.585938 14.773438 689.082031 C 14.710938 688.582031 14.703125 688.078125 14.742188 687.574219 C 14.78125 687.070312 14.867188 686.574219 15.003906 686.089844 C 15.140625 685.601562 15.324219 685.132812 15.554688 684.683594 C 15.78125 684.234375 16.054688 683.808594 16.367188 683.414062 C 16.679688 683.015625 17.027344 682.652344 17.410156 682.324219 C 17.796875 681.996094 18.207031 681.707031 18.648438 681.460938 C 19.089844 681.214844 19.550781 681.011719 20.03125 680.855469 C 20.511719 680.699219 21 680.59375 21.503906 680.53125 C 22.003906 680.472656 22.507812 680.460938 23.011719 680.503906 C 23.515625 680.542969 24.011719 680.628906 24.496094 680.765625 C 24.984375 680.902344 25.449219 681.085938 25.902344 681.316406 C 26.351562 681.546875 26.773438 681.816406 27.171875 682.128906 C 27.570312 682.441406 27.929688 682.789062 28.257812 683.175781 C 36.414062 692.710938 45.105469 701.941406 54.027344 710.710938 C 54.773438 711.441406 55.34375 712.285156 55.742188 713.246094 C 56.144531 714.207031 56.339844 715.210938 56.335938 716.25 Z M 6.414062 657.867188 C 6.429688 658.691406 6.3125 659.496094 6.070312 660.285156 C 5.824219 661.070312 5.464844 661.800781 4.984375 662.472656 C 4.503906 663.144531 3.933594 663.722656 3.269531 664.210938 C 2.605469 664.695312 1.878906 665.066406 1.09375 665.320312 C 0.3125 665.574219 -0.492188 665.699219 -1.316406 665.695312 C -2.140625 665.691406 -2.945312 665.558594 -3.726562 665.296875 C -4.507812 665.035156 -5.230469 664.65625 -5.890625 664.160156 C -6.546875 663.667969 -7.113281 663.082031 -7.585938 662.40625 C -15.277344 651.789062 -22.277344 640.789062 -28.894531 629.558594 C -29.121094 629.125 -29.304688 628.671875 -29.445312 628.199219 C -29.585938 627.730469 -29.683594 627.25 -29.730469 626.761719 C -29.78125 626.273438 -29.78125 625.78125 -29.738281 625.292969 C -29.691406 624.804688 -29.601562 624.324219 -29.464844 623.851562 C -29.328125 623.378906 -29.148438 622.925781 -28.921875 622.488281 C -28.699219 622.050781 -28.4375 621.636719 -28.132812 621.25 C -27.828125 620.863281 -27.492188 620.507812 -27.121094 620.1875 C -26.75 619.863281 -26.351562 619.582031 -25.925781 619.335938 C -25.5 619.089844 -25.054688 618.886719 -24.59375 618.726562 C -24.128906 618.5625 -23.652344 618.449219 -23.164062 618.378906 C -22.679688 618.308594 -22.191406 618.289062 -21.699219 618.3125 C -21.207031 618.335938 -20.722656 618.40625 -20.246094 618.523438 C -19.769531 618.640625 -19.308594 618.800781 -18.863281 619.007812 C -18.414062 619.210938 -17.992188 619.457031 -17.59375 619.746094 C -17.195312 620.03125 -16.824219 620.351562 -16.488281 620.710938 C -16.148438 621.066406 -15.847656 621.453125 -15.585938 621.867188 C -9.277344 632.636719 -2.355469 643.328125 4.953125 653.484375 C 5.964844 654.882812 6.453125 656.445312 6.414062 658.175781 Z M -32.507812 591.714844 C -32.523438 592.578125 -32.675781 593.417969 -32.972656 594.230469 C -33.269531 595.046875 -33.691406 595.785156 -34.238281 596.457031 C -34.789062 597.128906 -35.429688 597.691406 -36.167969 598.144531 C -36.902344 598.597656 -37.695312 598.917969 -38.539062 599.105469 C -39.382812 599.292969 -40.238281 599.335938 -41.097656 599.234375 C -41.957031 599.132812 -42.773438 598.894531 -43.554688 598.515625 C -44.332031 598.140625 -45.027344 597.644531 -45.640625 597.03125 C -46.25 596.421875 -46.746094 595.722656 -47.125 594.945312 C -52.738281 583.253906 -57.816406 571.101562 -62.507812 558.945312 C -62.683594 558.472656 -62.808594 557.984375 -62.886719 557.484375 C -62.964844 556.984375 -62.992188 556.484375 -62.972656 555.976562 C -62.953125 555.472656 -62.882812 554.972656 -62.761719 554.480469 C -62.644531 553.988281 -62.480469 553.515625 -62.265625 553.054688 C -62.054688 552.597656 -61.796875 552.164062 -61.5 551.753906 C -61.203125 551.347656 -60.867188 550.96875 -60.496094 550.628906 C -60.125 550.285156 -59.722656 549.980469 -59.289062 549.71875 C -58.859375 549.453125 -58.40625 549.234375 -57.929688 549.0625 C -57.457031 548.886719 -56.96875 548.761719 -56.46875 548.683594 C -55.96875 548.605469 -55.46875 548.574219 -54.960938 548.597656 C -54.457031 548.617188 -53.957031 548.6875 -53.464844 548.804688 C -52.976562 548.925781 -52.5 549.089844 -52.039062 549.304688 C -51.582031 549.515625 -51.148438 549.769531 -50.738281 550.070312 C -50.332031 550.367188 -49.957031 550.703125 -49.613281 551.074219 C -49.269531 551.445312 -48.964844 551.847656 -48.703125 552.277344 C -48.441406 552.710938 -48.222656 553.164062 -48.046875 553.636719 C -43.738281 565.332031 -38.816406 576.714844 -33.507812 588.40625 C -32.851562 589.523438 -32.519531 590.726562 -32.507812 592.023438 Z M -59.046875 519.640625 C -58.980469 520.144531 -58.964844 520.652344 -59 521.160156 C -59.035156 521.667969 -59.117188 522.167969 -59.25 522.65625 C -59.382812 523.148438 -59.5625 523.625 -59.789062 524.078125 C -60.015625 524.535156 -60.28125 524.964844 -60.59375 525.371094 C -60.90625 525.773438 -61.25 526.140625 -61.636719 526.476562 C -62.019531 526.8125 -62.429688 527.105469 -62.871094 527.359375 C -63.3125 527.613281 -63.777344 527.820312 -64.257812 527.984375 C -64.742188 528.148438 -65.234375 528.261719 -65.738281 528.328125 C -66.242188 528.394531 -66.75 528.410156 -67.257812 528.375 C -67.765625 528.339844 -68.265625 528.257812 -68.757812 528.125 C -69.25 527.992188 -69.722656 527.8125 -70.179688 527.585938 C -70.636719 527.363281 -71.066406 527.09375 -71.46875 526.78125 C -71.871094 526.472656 -72.242188 526.125 -72.578125 525.742188 C -72.914062 525.359375 -73.207031 524.945312 -73.460938 524.503906 C -73.714844 524.0625 -73.925781 523.601562 -74.085938 523.121094 C -74.25 522.636719 -74.363281 522.144531 -74.429688 521.640625 C -77.816406 509.101562 -80.660156 496.253906 -82.890625 483.179688 C -82.976562 482.671875 -83.011719 482.164062 -83 481.652344 C -82.984375 481.140625 -82.921875 480.636719 -82.808594 480.136719 C -82.691406 479.636719 -82.53125 479.152344 -82.320312 478.683594 C -82.113281 478.21875 -81.859375 477.773438 -81.5625 477.355469 C -81.265625 476.9375 -80.933594 476.554688 -80.558594 476.203125 C -80.1875 475.851562 -79.785156 475.539062 -79.351562 475.265625 C -78.917969 474.992188 -78.460938 474.765625 -77.984375 474.582031 C -77.503906 474.398438 -77.011719 474.265625 -76.507812 474.179688 C -76.003906 474.09375 -75.492188 474.058594 -74.980469 474.070312 C -74.46875 474.085938 -73.964844 474.148438 -73.464844 474.265625 C -72.964844 474.378906 -72.480469 474.539062 -72.011719 474.75 C -71.546875 474.957031 -71.101562 475.210938 -70.683594 475.507812 C -70.265625 475.804688 -69.882812 476.136719 -69.53125 476.511719 C -69.179688 476.882812 -68.867188 477.285156 -68.59375 477.71875 C -68.320312 478.152344 -68.09375 478.609375 -67.910156 479.085938 C -67.726562 479.566406 -67.59375 480.058594 -67.507812 480.5625 C -65.355469 492.871094 -62.585938 505.332031 -59.355469 517.410156 C -59.128906 518.238281 -59.023438 519.085938 -59.046875 519.945312 Z M -72.277344 444.332031 C -72.257812 444.839844 -72.285156 445.339844 -72.363281 445.839844 C -72.441406 446.339844 -72.570312 446.828125 -72.746094 447.300781 C -72.917969 447.773438 -73.136719 448.226562 -73.402344 448.660156 C -73.664062 449.089844 -73.96875 449.492188 -74.3125 449.863281 C -74.65625 450.234375 -75.03125 450.570312 -75.441406 450.867188 C -75.847656 451.164062 -76.28125 451.417969 -76.742188 451.628906 C -77.199219 451.84375 -77.675781 452.007812 -78.167969 452.125 C -78.65625 452.242188 -79.15625 452.3125 -79.660156 452.332031 C -80.167969 452.351562 -80.667969 452.324219 -81.167969 452.246094 C -81.667969 452.167969 -82.152344 452.039062 -82.628906 451.867188 C -83.101562 451.691406 -83.554688 451.472656 -83.988281 451.207031 C -84.417969 450.945312 -84.820312 450.640625 -85.191406 450.296875 C -85.5625 449.953125 -85.894531 449.578125 -86.195312 449.171875 C -86.492188 448.761719 -86.746094 448.328125 -86.957031 447.867188 C -87.167969 447.410156 -87.335938 446.933594 -87.453125 446.445312 C -87.570312 445.953125 -87.640625 445.453125 -87.660156 444.949219 C -88.660156 432.566406 -89.199219 419.949219 -89.199219 407.410156 C -89.199219 406.90625 -89.148438 406.40625 -89.050781 405.910156 C -88.953125 405.414062 -88.808594 404.933594 -88.613281 404.46875 C -88.421875 404 -88.183594 403.558594 -87.902344 403.136719 C -87.621094 402.71875 -87.304688 402.328125 -86.945312 401.972656 C -86.589844 401.613281 -86.199219 401.296875 -85.78125 401.015625 C -85.359375 400.734375 -84.917969 400.496094 -84.449219 400.304688 C -83.984375 400.113281 -83.503906 399.964844 -83.007812 399.867188 C -82.511719 399.769531 -82.011719 399.71875 -81.507812 399.71875 C -81.003906 399.71875 -80.5 399.769531 -80.007812 399.867188 C -79.511719 399.964844 -79.03125 400.113281 -78.5625 400.304688 C -78.097656 400.496094 -77.652344 400.734375 -77.234375 401.015625 C -76.8125 401.296875 -76.425781 401.613281 -76.066406 401.972656 C -75.710938 402.328125 -75.390625 402.71875 -75.113281 403.136719 C -74.832031 403.558594 -74.59375 404 -74.402344 404.46875 C -74.207031 404.933594 -74.0625 405.414062 -73.964844 405.910156 C -73.863281 406.40625 -73.816406 406.90625 -73.816406 407.410156 C -73.816406 419.488281 -73.277344 431.640625 -72.277344 443.640625 Z M -72.277344 444.332031 " fill-opacity="1" fill-rule="nonzero"/></g></svg>